# WaveFront *.obj file (generated by Autodesk ATF)

mtllib yazirusi.mtl

g ソリッド1

v -10.000000 0.000000 -10.000000
v -10.000000 5.000000 -10.000000
v -5.000000 0.000000 -10.000000
v -5.000000 0.000000 10.000000
v -5.000000 5.000000 -10.000000
v -5.000000 5.000000 10.000000
v 0.000000 0.000000 -20.000000
v 0.000000 5.000000 -20.000000
v 5.000000 0.000000 -10.000000
v 5.000000 0.000000 10.000000
v 5.000000 5.000000 -10.000000
v 5.000000 5.000000 10.000000
v 10.000000 0.000000 -10.000000
v 10.000000 5.000000 -10.000000
vt 0.000000 0.000000 0.000000
vt 2.000000 0.000000 0.000000
vt 2.000000 0.500000 0.000000
vt 0.000000 0.500000 0.000000
vt 0.000000 0.000000 0.000000
vt 2.000000 0.000000 0.000000
vt 2.000000 0.500000 0.000000
vt 0.000000 0.500000 0.000000
vt 0.000000 0.000000 0.000000
vt 1.000000 0.000000 0.000000
vt 1.000000 0.500000 0.000000
vt 0.000000 0.500000 0.000000
vt 0.500000 0.000000 0.000000
vt 0.500000 0.500000 0.000000
vt 0.000000 0.500000 0.000000
vt 0.000000 0.000000 0.000000
vt 1.500000 0.500000 0.000000
vt 1.500000 0.000000 0.000000
vt 2.000000 0.000000 0.000000
vt 2.000000 0.500000 0.000000
vt 0.000000 0.000000 0.000000
vt 1.414214 0.000000 0.000000
vt 1.414214 0.500000 0.000000
vt 0.000000 0.500000 0.000000
vt 0.000000 0.000000 0.000000
vt 1.414214 0.000000 0.000000
vt 1.414214 0.500000 0.000000
vt 0.000000 0.500000 0.000000
vt 0.292893 -1.000000 0.000000
vt 0.292893 -0.500000 0.000000
vt 2.292893 -0.500000 0.000000
vt 2.292893 0.500000 0.000000
vt 0.292893 0.500000 0.000000
vt 0.292893 1.000000 0.000000
vt -0.707107 0.000000 0.000000
vt -0.292893 -0.500000 0.000000
vt -0.292893 -1.000000 0.000000
vt 0.707107 0.000000 0.000000
vt -0.292893 1.000000 0.000000
vt -0.292893 0.500000 0.000000
vt -2.292893 0.500000 0.000000
vt -2.292893 -0.500000 0.000000
vn -0.100000 0.000000 0.000000
vn -0.100000 0.000000 0.000000
vn -0.100000 0.000000 0.000000
vn -0.100000 0.000000 0.000000
vn 0.100000 0.000000 0.000000
vn 0.100000 0.000000 0.000000
vn 0.100000 0.000000 0.000000
vn 0.100000 0.000000 0.000000
vn 0.000000 0.000000 0.100000
vn 0.000000 0.000000 0.100000
vn 0.000000 0.000000 0.100000
vn 0.000000 0.000000 0.100000
vn 0.000000 0.000000 0.100000
vn 0.000000 0.000000 0.100000
vn 0.000000 0.000000 0.100000
vn 0.000000 0.000000 0.100000
vn 0.000000 0.000000 0.100000
vn 0.000000 0.000000 0.100000
vn 0.000000 0.000000 0.100000
vn 0.000000 0.000000 0.100000
vn -0.070711 0.000000 -0.070711
vn -0.070711 0.000000 -0.070711
vn -0.070711 0.000000 -0.070711
vn -0.070711 0.000000 -0.070711
vn 0.070711 0.000000 -0.070711
vn 0.070711 0.000000 -0.070711
vn 0.070711 0.000000 -0.070711
vn 0.070711 0.000000 -0.070711
vn 0.000000 0.100000 0.000000
vn 0.000000 0.100000 0.000000
vn 0.000000 0.100000 0.000000
vn 0.000000 0.100000 0.000000
vn 0.000000 0.100000 0.000000
vn 0.000000 0.100000 0.000000
vn 0.000000 0.100000 0.000000
vn 0.000000 -0.100000 0.000000
vn 0.000000 -0.100000 0.000000
vn 0.000000 -0.100000 0.000000
vn 0.000000 -0.100000 0.000000
vn 0.000000 -0.100000 0.000000
vn 0.000000 -0.100000 0.000000
vn 0.000000 -0.100000 0.000000
usemtl 191,191,191
f 3/1/1 4/2/2 5/4/4
f 5/4/4 4/2/2 6/3/3
f 10/5/5 9/6/6 12/8/8
f 12/8/8 9/6/6 11/7/7
f 4/9/9 10/10/10 6/12/12
f 6/12/12 10/10/10 12/11/11
f 5/14/14 2/15/15 3/13/13
f 3/13/13 2/15/15 1/16/16
f 9/18/18 13/19/19 11/17/17
f 11/17/17 13/19/19 14/20/20
f 7/21/21 1/22/22 8/24/24
f 8/24/24 1/22/22 2/23/23
f 13/25/25 7/26/26 14/28/28
f 14/28/28 7/26/26 8/27/27
f 2/29/29 5/30/30 8/35/35
f 8/35/35 5/30/30 11/33/33
f 8/35/35 11/33/33 14/34/34
f 5/30/30 6/31/31 11/33/33
f 11/33/33 6/31/31 12/32/32
f 1/37/37 7/38/38 3/36/36
f 3/36/36 7/38/38 9/40/40
f 3/36/36 9/40/40 4/42/42
f 4/42/42 9/40/40 10/41/41
f 7/38/38 13/39/39 9/40/40

# 14 vertices
# 42 texture params
# 42 normals
# 24 facets

# 1 groups
